<?xml version="1.0" standalone="no"?>
<!DOCTYPE svg PUBLIC "-//W3C//DTD SVG 20010904//EN"
 "http://www.w3.org/TR/2001/REC-SVG-20010904/DTD/svg10.dtd">
<svg version="1.0" xmlns="http://www.w3.org/2000/svg"
 width="2480.000000pt" height="2480.000000pt" viewBox="0 0 2480.000000 2480.000000"
 preserveAspectRatio="xMidYMid meet">
<metadata>
Created by potrace 1.11, written by Peter Selinger 2001-2013
</metadata>
<g transform="translate(0.000000,2480.000000) scale(0.100000,-0.100000)"
fill="#000000" stroke="none">
<path d="M9692 20505 c-189 -53 -401 -155 -563 -271 -106 -75 -283 -246 -365
-349 -120 -155 -213 -321 -259 -467 -57 -181 -232 -399 -403 -502 -142 -85
-363 -144 -502 -134 -28 1 -50 -1 -50 -5 0 -4 -1007 -8 -2237 -7 -2264 1
-2335 0 -2518 -35 -146 -28 -327 -90 -458 -157 -34 -17 -68 -33 -74 -34 -20
-3 -190 -121 -268 -185 -267 -218 -489 -565 -588 -919 l-32 -115 0 -5655 0
-5655 29 -105 c119 -433 385 -802 763 -1056 169 -114 430 -219 653 -265 l105
-21 2415 1 2415 2 53 36 c102 69 169 169 202 299 24 92 25 135 5 229 -28 135
-115 261 -230 334 l-49 31 -2318 0 c-1539 0 -2318 3 -2318 10 0 6 -11 10 -23
10 -39 0 -174 38 -240 67 -203 89 -381 267 -470 470 -42 95 -66 204 -77 347
-14 180 -14 10352 0 10532 11 143 35 252 77 347 109 250 341 448 599 514 38
10 72 23 76 28 5 7 867 12 2535 15 l2528 5 111 32 c310 90 557 231 777 443
205 197 340 397 422 627 78 217 238 422 413 527 100 59 246 111 367 128 72 10
513 13 2155 13 1642 0 2083 -3 2155 -13 121 -17 267 -69 367 -128 175 -105
335 -310 413 -527 82 -230 217 -430 422 -627 220 -212 467 -353 777 -443 l111
-32 2503 -3 c1640 -1 2502 -6 2502 -12 0 -6 11 -10 23 -10 39 0 174 -38 240
-67 203 -89 381 -267 470 -470 42 -95 66 -204 77 -347 14 -180 14 -10352 0
-10532 -11 -143 -35 -252 -77 -347 -89 -203 -267 -381 -470 -470 -66 -29 -201
-67 -240 -67 -12 0 -23 -4 -23 -10 0 -7 -779 -10 -2318 -10 l-2318 0 -49 -31
c-115 -73 -202 -199 -230 -334 -20 -94 -19 -137 5 -229 33 -130 100 -230 202
-299 l53 -36 2405 -2 c1323 -1 2423 1 2445 5 188 31 302 63 445 123 69 29 260
127 260 133 0 4 11 12 24 18 14 6 33 18 43 26 10 8 47 36 83 63 95 69 264 243
348 358 68 92 96 138 171 280 40 75 89 202 117 301 l24 89 0 5705 0 5705 -24
89 c-33 119 -78 227 -148 358 -56 104 -84 148 -172 268 -57 79 -238 256 -331
326 -81 60 -180 124 -200 129 -5 1 -57 25 -115 52 -119 57 -196 85 -325 118
-222 57 -185 56 -2607 55 -1231 -1 -2238 3 -2238 7 0 4 -22 6 -50 5 -139 -10
-360 49 -502 134 -171 103 -346 321 -403 502 -111 351 -440 731 -805 930 -113
61 -270 126 -383 157 l-92 25 -2570 -1 -2570 0 -83 -24z"/>
<path d="M12250 17149 c-47 -4 -186 -12 -310 -18 -124 -6 -234 -15 -245 -20
-11 -5 -74 -14 -140 -20 -168 -16 -209 -22 -215 -30 -3 -4 -54 -13 -115 -20
-60 -7 -119 -18 -130 -25 -11 -7 -62 -19 -112 -26 -51 -7 -93 -16 -93 -21 0
-4 -8 -6 -17 -4 -10 1 -23 -2 -29 -6 -6 -5 -51 -16 -100 -25 -49 -9 -91 -20
-94 -24 -3 -4 -36 -15 -75 -25 -38 -10 -75 -22 -80 -26 -6 -5 -30 -11 -53 -15
-23 -4 -45 -11 -48 -15 -3 -5 -14 -9 -25 -9 -10 0 -19 -4 -19 -8 0 -4 -27 -13
-59 -20 -32 -7 -64 -18 -70 -26 -6 -7 -35 -18 -64 -25 -29 -6 -69 -20 -88 -30
-19 -10 -45 -22 -59 -26 -23 -7 -52 -19 -172 -74 -26 -11 -50 -21 -53 -21 -4
0 -19 -8 -33 -18 -15 -10 -46 -24 -69 -32 -24 -7 -43 -17 -43 -21 0 -4 -26
-17 -57 -29 -32 -12 -60 -25 -63 -28 -3 -4 -39 -24 -80 -46 -41 -21 -100 -53
-130 -72 -30 -18 -72 -41 -92 -50 -21 -9 -38 -20 -38 -24 0 -4 -13 -13 -30
-20 -16 -7 -38 -20 -49 -29 -11 -9 -43 -29 -72 -46 -28 -16 -60 -38 -71 -48
-11 -10 -35 -25 -54 -33 -19 -8 -34 -18 -34 -24 0 -5 -16 -17 -35 -26 -19 -9
-35 -19 -35 -23 0 -4 -15 -15 -32 -26 -18 -10 -37 -23 -43 -27 -5 -5 -28 -21
-50 -37 -22 -17 -51 -39 -65 -51 -14 -11 -49 -38 -77 -59 -29 -22 -59 -45 -66
-53 -7 -7 -31 -26 -52 -43 -21 -16 -46 -37 -55 -45 -9 -8 -36 -33 -60 -54 -54
-48 -247 -225 -269 -247 -56 -56 -196 -206 -251 -268 -36 -41 -76 -86 -90
-101 -14 -16 -34 -40 -45 -54 -11 -14 -31 -39 -45 -55 -14 -16 -47 -59 -75
-95 -27 -37 -68 -90 -91 -119 -22 -28 -57 -77 -77 -109 -21 -31 -44 -62 -52
-68 -8 -7 -15 -17 -15 -23 0 -6 -7 -19 -17 -29 -19 -21 -40 -56 -49 -80 -3
-10 -10 -18 -15 -18 -4 0 -16 -17 -25 -37 -10 -21 -24 -46 -32 -56 -18 -20
-32 -45 -64 -107 -13 -25 -26 -48 -31 -51 -8 -6 -30 -46 -92 -166 -22 -43 -43
-80 -46 -83 -11 -10 -139 -286 -139 -300 0 -5 -4 -10 -8 -10 -5 0 -14 -18 -21
-41 -7 -22 -21 -56 -32 -75 -10 -19 -19 -40 -19 -47 0 -7 -7 -25 -16 -42 -9
-16 -25 -59 -36 -95 -11 -36 -24 -67 -28 -70 -4 -3 -13 -30 -20 -60 -7 -30
-16 -57 -20 -60 -3 -3 -14 -32 -24 -65 -10 -33 -22 -69 -27 -80 -5 -11 -16
-53 -25 -92 -8 -40 -20 -73 -25 -73 -6 0 -7 -5 -4 -10 4 -6 2 -16 -3 -23 -5
-7 -15 -46 -22 -87 -7 -41 -16 -79 -20 -85 -4 -5 -12 -37 -19 -70 -7 -33 -16
-67 -21 -76 -4 -9 -16 -74 -25 -145 -9 -71 -23 -145 -30 -164 -14 -36 -35
-206 -35 -285 0 -25 -4 -45 -9 -45 -5 0 -12 -71 -15 -157 -4 -87 -9 -185 -12
-218 -22 -249 -22 -261 0 -510 3 -33 8 -131 12 -217 3 -87 10 -158 15 -158 5
0 9 -20 9 -45 0 -79 21 -249 35 -285 7 -19 21 -93 30 -164 9 -71 21 -136 25
-145 5 -9 14 -43 21 -76 7 -33 15 -64 19 -70 4 -5 13 -44 20 -85 7 -41 17 -80
22 -87 5 -7 7 -17 3 -23 -3 -5 -2 -10 4 -10 5 0 17 -33 25 -72 9 -40 20 -82
25 -93 5 -11 17 -47 27 -80 10 -33 21 -62 24 -65 4 -3 13 -30 20 -60 7 -30 16
-57 20 -60 4 -3 17 -34 28 -70 11 -36 27 -78 36 -95 9 -16 16 -35 16 -42 0 -7
9 -28 19 -47 11 -19 25 -53 32 -75 7 -23 16 -41 21 -41 4 0 8 -5 8 -10 0 -14
128 -290 139 -300 3 -3 24 -40 46 -83 62 -120 84 -160 92 -166 5 -3 18 -26 31
-51 32 -62 46 -87 64 -107 8 -10 22 -35 32 -55 9 -21 21 -38 25 -38 5 0 12 -8
15 -17 9 -25 30 -60 49 -81 10 -10 17 -23 17 -29 0 -6 7 -16 15 -23 8 -6 31
-37 52 -68 20 -32 55 -81 77 -109 23 -29 64 -82 91 -119 28 -36 61 -79 75 -95
14 -16 34 -41 45 -55 11 -14 31 -38 45 -54 14 -15 54 -60 90 -101 55 -62 195
-212 251 -268 22 -22 215 -199 269 -247 24 -21 51 -46 60 -54 9 -8 34 -28 55
-45 21 -16 45 -36 52 -43 7 -8 37 -31 66 -53 28 -21 63 -48 77 -59 14 -12 43
-34 65 -51 22 -16 45 -32 50 -37 6 -4 25 -17 43 -27 17 -11 32 -22 32 -26 0
-4 16 -14 35 -23 19 -9 35 -21 35 -26 0 -6 15 -16 34 -24 19 -8 43 -23 54 -33
11 -10 43 -31 71 -48 29 -16 61 -37 72 -46 11 -9 33 -22 49 -29 17 -7 30 -16
30 -20 0 -4 17 -15 38 -24 20 -9 62 -32 92 -50 30 -19 89 -51 130 -72 41 -22
77 -42 80 -46 3 -3 31 -16 63 -28 31 -12 57 -25 57 -29 0 -4 19 -14 43 -21 23
-8 54 -22 69 -32 14 -10 29 -18 33 -18 3 0 30 -11 58 -24 110 -50 143 -64 167
-71 14 -4 40 -16 59 -26 19 -10 59 -24 88 -30 29 -7 58 -18 64 -25 6 -8 38
-19 70 -26 32 -7 59 -16 59 -20 0 -4 9 -8 19 -8 11 0 22 -4 25 -9 3 -4 25 -11
48 -15 23 -4 47 -10 53 -15 5 -4 42 -16 80 -26 39 -10 72 -21 75 -25 3 -4 45
-15 94 -24 49 -9 94 -20 100 -25 6 -4 19 -7 29 -6 9 2 17 0 17 -4 0 -5 42 -14
93 -21 50 -7 101 -19 112 -26 11 -7 70 -18 130 -25 61 -7 112 -16 115 -20 6
-8 47 -14 215 -30 66 -6 129 -15 140 -20 11 -5 119 -13 240 -20 121 -6 262
-14 312 -17 51 -4 135 -4 185 0 51 3 192 11 313 17 121 7 229 15 240 20 11 5
74 14 140 20 168 16 209 22 215 30 3 4 55 13 115 20 61 7 119 18 130 25 11 7
62 19 113 26 50 7 92 16 92 21 0 4 8 6 18 4 9 -1 22 2 28 6 6 5 51 16 100 25
49 9 91 20 94 24 3 4 37 15 75 25 39 10 75 22 80 26 6 5 30 11 53 15 23 4 45
11 48 15 3 5 14 9 25 9 10 0 19 4 19 8 0 4 27 13 59 20 32 7 64 18 70 26 6 7
35 18 64 25 29 6 69 20 88 30 19 10 45 22 59 26 23 7 52 19 172 74 26 11 50
21 53 21 4 0 19 8 33 18 15 10 46 24 70 32 23 7 42 17 42 21 0 4 26 17 57 29
32 12 60 25 63 28 3 4 39 24 80 46 41 21 100 53 130 72 30 18 72 41 93 50 20
9 37 20 37 24 0 4 13 13 30 20 16 7 38 20 49 29 11 9 43 30 72 46 28 17 60 38
71 48 11 10 35 25 54 33 19 8 34 18 34 24 0 5 16 17 35 26 19 9 35 19 35 23 0
4 15 15 33 26 17 10 37 23 42 27 6 5 28 21 50 37 22 17 51 39 65 51 14 11 49
38 77 59 29 22 59 45 66 53 7 7 31 27 52 43 21 17 46 37 55 45 9 8 36 33 60
54 54 48 247 225 269 247 56 56 196 206 251 268 36 41 76 86 90 101 14 16 34
40 45 54 11 14 31 39 45 55 14 16 48 59 75 95 28 37 68 90 91 119 22 28 57 77
77 109 21 31 44 62 52 68 8 7 15 17 15 23 0 6 7 19 17 29 19 21 40 56 49 81 3
9 10 17 15 17 4 0 16 17 25 38 10 20 24 45 32 55 18 20 32 45 64 107 13 25 26
48 31 51 8 6 30 46 92 166 22 43 43 80 46 83 11 10 139 286 139 300 0 5 4 10
8 10 5 0 14 18 21 41 7 22 21 56 32 75 10 19 19 40 19 47 0 7 7 26 16 42 9 17
25 59 36 95 11 36 24 67 28 70 4 3 13 30 20 60 7 30 16 57 20 60 3 3 14 32 24
65 10 33 22 69 27 80 5 11 16 53 25 93 8 39 20 72 25 72 6 0 7 5 4 10 -4 6 -2
16 3 23 5 7 15 46 22 87 7 41 16 80 20 85 4 6 12 37 19 70 7 33 16 67 21 76 4
9 16 74 25 145 9 71 23 145 30 164 14 36 35 206 35 285 0 25 4 45 9 45 5 0 12
71 15 158 4 86 9 184 12 217 22 249 22 261 0 510 -3 33 -8 131 -12 218 -3 86
-10 157 -15 157 -5 0 -9 20 -9 45 0 79 -21 249 -35 285 -7 19 -21 93 -30 164
-9 71 -21 136 -25 145 -5 9 -14 43 -21 76 -7 33 -15 65 -19 70 -4 6 -13 44
-20 85 -7 41 -17 80 -22 87 -5 7 -7 17 -3 23 3 5 2 10 -4 10 -5 0 -17 33 -25
73 -9 39 -20 81 -25 92 -5 11 -17 47 -27 80 -10 33 -21 62 -24 65 -4 3 -13 30
-20 60 -7 30 -16 57 -20 60 -4 3 -17 34 -28 70 -11 36 -27 79 -36 95 -9 17
-16 35 -16 42 0 7 -9 28 -19 47 -11 19 -25 53 -32 75 -7 23 -16 41 -21 41 -4
0 -8 5 -8 10 0 14 -128 290 -139 300 -3 3 -24 40 -46 83 -62 120 -84 160 -92
166 -5 3 -18 26 -31 51 -32 62 -46 87 -64 107 -8 10 -22 35 -32 56 -9 20 -21
37 -25 37 -5 0 -12 8 -15 18 -9 24 -30 59 -49 80 -10 10 -17 23 -17 29 0 6 -7
16 -15 23 -8 6 -31 37 -52 68 -20 32 -55 81 -77 109 -23 29 -63 82 -91 119
-27 36 -61 79 -75 95 -14 16 -34 41 -45 55 -11 14 -31 38 -45 54 -14 15 -54
60 -90 101 -55 62 -195 212 -251 268 -22 22 -215 199 -269 247 -24 21 -51 46
-60 54 -9 8 -34 29 -55 45 -21 17 -45 36 -52 43 -7 8 -37 31 -66 53 -28 21
-63 48 -77 59 -14 12 -43 34 -65 51 -22 16 -44 32 -50 37 -5 4 -25 17 -42 27
-18 11 -33 22 -33 26 0 4 -16 14 -35 23 -19 9 -35 21 -35 26 0 6 -15 16 -34
24 -19 8 -43 23 -54 33 -11 10 -43 32 -71 48 -29 17 -61 37 -72 46 -11 9 -33
22 -49 29 -17 7 -30 16 -30 20 0 4 -17 15 -37 24 -21 9 -63 32 -93 50 -30 19
-89 51 -130 72 -41 22 -77 42 -80 46 -3 3 -31 16 -63 28 -31 12 -57 25 -57 29
0 4 -19 14 -42 21 -24 8 -55 22 -70 32 -14 10 -29 18 -33 18 -3 0 -30 11 -58
24 -110 50 -143 64 -167 71 -14 4 -40 16 -59 26 -19 10 -59 24 -88 30 -29 7
-58 18 -64 25 -6 8 -38 19 -70 26 -32 7 -59 16 -59 20 0 4 -9 8 -19 8 -11 0
-22 4 -25 9 -3 4 -25 11 -48 15 -23 4 -47 10 -53 15 -5 4 -41 16 -80 26 -38
10 -72 21 -75 25 -3 4 -45 15 -94 24 -49 9 -94 20 -100 25 -6 4 -19 7 -28 6
-10 -2 -18 0 -18 4 0 5 -42 14 -92 21 -51 7 -102 19 -113 26 -11 7 -69 18
-130 25 -60 7 -112 16 -115 20 -6 8 -48 14 -215 29 -66 7 -127 15 -136 20 -9
5 -92 11 -185 15 -93 3 -212 10 -264 15 -138 14 -195 16 -290 9z m715 -1233
c88 -9 169 -21 180 -26 11 -5 74 -16 140 -26 66 -10 122 -21 125 -25 3 -3 50
-14 105 -25 55 -10 102 -21 105 -25 3 -4 41 -15 85 -24 44 -10 82 -21 85 -25
3 -4 36 -15 75 -24 38 -10 74 -21 80 -26 5 -4 37 -16 70 -25 33 -10 65 -21 70
-25 6 -4 35 -15 65 -25 30 -10 64 -24 75 -30 11 -7 31 -16 45 -20 27 -7 117
-48 214 -96 32 -16 65 -29 72 -29 8 0 14 -4 14 -9 0 -5 20 -17 45 -27 25 -9
45 -20 45 -24 0 -5 23 -16 50 -26 28 -10 50 -21 50 -24 0 -4 18 -15 40 -25 22
-10 40 -21 40 -25 0 -4 12 -12 28 -19 15 -7 43 -23 62 -35 19 -13 58 -37 85
-54 28 -17 55 -35 60 -40 6 -5 24 -17 40 -28 47 -30 168 -117 189 -136 11 -10
23 -18 26 -18 4 0 18 -10 32 -22 32 -29 75 -65 123 -103 98 -79 197 -169 324
-297 144 -144 186 -191 347 -383 37 -45 144 -187 184 -244 19 -28 43 -61 53
-72 9 -12 17 -25 17 -29 0 -3 9 -16 20 -28 12 -12 18 -22 15 -22 -3 0 -1 -6 5
-12 11 -13 60 -91 94 -150 11 -18 19 -36 18 -40 -1 -5 2 -8 7 -8 5 0 14 -14
21 -31 7 -17 18 -36 24 -42 6 -7 36 -61 65 -122 30 -60 57 -112 61 -115 4 -3
11 -16 15 -30 4 -14 25 -62 46 -106 22 -45 39 -89 39 -97 0 -9 6 -22 13 -29 6
-7 21 -40 31 -73 11 -33 25 -69 31 -80 7 -11 20 -47 30 -80 9 -33 21 -65 27
-72 5 -7 7 -17 3 -23 -3 -5 -2 -10 3 -10 5 0 17 -33 26 -72 10 -40 21 -75 25
-78 4 -3 17 -54 30 -115 13 -60 27 -114 31 -120 4 -5 18 -71 31 -145 12 -74
26 -137 29 -140 7 -5 34 -233 50 -420 5 -63 10 -250 10 -415 0 -165 -5 -352
-10 -415 -16 -187 -43 -415 -50 -420 -3 -3 -17 -66 -29 -140 -13 -74 -27 -139
-31 -145 -4 -5 -18 -59 -31 -120 -13 -60 -26 -112 -30 -115 -4 -3 -15 -38 -25
-78 -9 -39 -21 -72 -26 -72 -5 0 -6 -5 -3 -10 4 -6 2 -16 -3 -23 -6 -7 -18
-39 -27 -72 -10 -33 -23 -69 -30 -80 -6 -11 -20 -47 -31 -80 -10 -33 -25 -66
-31 -73 -7 -7 -13 -20 -13 -29 0 -8 -17 -52 -39 -97 -21 -44 -42 -92 -46 -106
-4 -14 -11 -27 -15 -30 -4 -3 -31 -54 -61 -115 -29 -60 -59 -115 -65 -122 -6
-6 -17 -25 -24 -42 -7 -17 -16 -31 -21 -31 -5 0 -8 -3 -7 -7 1 -5 -7 -23 -18
-41 -34 -59 -83 -137 -94 -149 -6 -7 -8 -13 -5 -13 3 0 -3 -10 -15 -22 -11
-12 -20 -25 -20 -28 0 -4 -8 -17 -17 -29 -10 -11 -34 -44 -53 -72 -40 -57
-147 -199 -184 -244 -161 -192 -203 -239 -347 -383 -127 -128 -226 -218 -324
-297 -48 -38 -91 -74 -123 -102 -14 -13 -28 -23 -32 -23 -3 0 -15 -8 -26 -18
-21 -19 -142 -106 -189 -136 -16 -11 -34 -23 -40 -28 -5 -5 -32 -23 -60 -40
-27 -17 -66 -41 -85 -54 -19 -12 -47 -28 -62 -35 -16 -7 -28 -15 -28 -19 0 -4
-18 -15 -40 -25 -22 -10 -40 -21 -40 -25 0 -3 -22 -14 -50 -24 -27 -10 -50
-21 -50 -26 0 -4 -20 -15 -45 -24 -25 -10 -45 -22 -45 -27 0 -5 -6 -9 -14 -9
-7 0 -40 -13 -72 -29 -97 -48 -187 -89 -214 -96 -14 -4 -34 -13 -45 -20 -11
-6 -45 -20 -75 -30 -30 -10 -59 -21 -65 -25 -5 -4 -37 -15 -70 -25 -33 -9 -65
-21 -70 -25 -6 -5 -42 -16 -80 -26 -39 -9 -72 -20 -75 -24 -3 -4 -41 -15 -85
-25 -44 -9 -82 -20 -85 -24 -3 -4 -50 -15 -105 -25 -55 -11 -102 -22 -105 -26
-3 -3 -61 -15 -130 -25 -69 -10 -129 -22 -135 -26 -5 -4 -91 -15 -190 -25
-258 -27 -912 -27 -1170 0 -99 10 -184 21 -190 25 -5 4 -66 16 -135 26 -69 10
-127 22 -130 25 -3 4 -50 15 -105 26 -55 10 -102 21 -105 25 -3 4 -41 15 -85
24 -44 10 -82 21 -85 25 -3 4 -36 15 -75 24 -38 10 -74 21 -80 26 -5 4 -37 16
-70 25 -33 10 -64 21 -70 25 -5 4 -35 15 -65 25 -30 10 -64 24 -75 30 -11 7
-31 16 -45 20 -27 7 -117 48 -214 96 -32 16 -65 29 -72 29 -8 0 -14 4 -14 9 0
5 -20 17 -45 27 -25 9 -45 20 -45 24 0 5 -23 16 -50 26 -27 10 -50 21 -50 24
0 4 -18 15 -40 25 -22 10 -40 21 -40 25 0 4 -12 12 -27 19 -16 7 -44 23 -63
35 -19 13 -57 37 -85 54 -27 17 -55 35 -60 40 -6 5 -24 17 -40 28 -47 30 -168
117 -189 136 -11 10 -23 18 -26 18 -4 0 -18 10 -32 23 -32 28 -75 64 -123 102
-98 79 -197 169 -324 297 -144 144 -186 191 -347 383 -37 45 -144 187 -184
244 -19 28 -43 61 -52 72 -10 12 -18 25 -18 29 0 3 -9 16 -20 28 -12 12 -18
22 -15 22 3 0 1 6 -5 13 -11 12 -60 90 -94 149 -11 18 -19 36 -18 41 1 4 -2 7
-7 7 -5 0 -14 14 -21 31 -7 17 -18 36 -24 42 -6 7 -36 62 -65 122 -30 61 -57
112 -61 115 -4 3 -11 16 -15 30 -4 14 -25 62 -46 106 -22 45 -39 89 -39 97 0
9 -6 22 -13 29 -6 7 -21 40 -31 73 -11 33 -25 69 -31 80 -7 11 -20 47 -30 80
-9 33 -21 65 -27 72 -5 7 -7 17 -3 23 3 5 2 10 -3 10 -5 0 -17 33 -26 72 -10
40 -21 75 -25 78 -4 3 -17 55 -30 115 -13 61 -27 115 -31 120 -4 6 -18 71 -31
145 -12 74 -26 137 -29 140 -7 5 -34 233 -50 420 -5 63 -10 250 -10 415 0 165
5 352 10 415 16 187 43 415 50 420 3 3 17 66 29 140 13 74 27 140 31 145 4 6
18 60 31 120 13 61 26 112 30 115 4 3 15 38 25 78 9 39 21 72 26 72 5 0 6 5 3
10 -4 6 -2 16 3 23 6 7 18 39 27 72 10 33 23 69 30 80 6 11 20 47 31 80 10 33
25 66 32 73 6 7 12 20 12 29 0 8 17 52 39 97 21 44 42 92 46 106 4 14 11 27
15 30 4 3 31 55 61 115 29 61 59 115 65 122 6 6 17 25 24 42 7 17 16 31 21 31
5 0 8 3 7 8 -1 4 7 22 18 40 34 59 83 137 94 150 6 6 8 12 5 12 -3 0 3 10 15
22 11 12 20 25 20 28 0 4 8 17 18 29 9 11 33 44 52 72 40 57 147 199 184 244
161 192 203 239 347 383 127 128 226 218 324 297 48 38 91 74 123 103 14 12
28 22 32 22 3 0 15 8 26 18 21 19 142 106 189 136 16 11 34 23 40 28 5 5 33
23 60 40 28 17 66 41 85 54 19 12 47 28 63 35 15 7 27 15 27 19 0 4 18 15 40
25 22 10 40 21 40 25 0 3 23 14 50 24 28 10 50 21 50 26 0 4 20 15 45 24 25
10 45 22 45 27 0 5 6 9 14 9 7 0 40 13 72 29 97 48 187 89 214 96 14 4 34 13
45 20 11 6 45 20 75 30 30 10 60 21 65 25 6 4 37 15 70 25 33 9 65 21 70 25 6
5 42 16 80 26 39 9 72 20 75 24 3 4 41 15 85 25 44 9 82 20 85 24 3 4 50 15
105 25 55 11 102 22 105 26 3 3 61 15 130 25 69 10 130 22 135 26 6 4 89 14
185 23 96 9 191 18 210 20 19 2 211 3 425 1 280 -1 435 -7 550 -19z"/>
</g>
</svg>
